<?xml version="1.0" standalone="no"?>
<!DOCTYPE svg PUBLIC "-//W3C//DTD SVG 20010904//EN"
 "http://www.w3.org/TR/2001/REC-SVG-20010904/DTD/svg10.dtd">
<svg version="1.0" xmlns="http://www.w3.org/2000/svg"
 width="513.000000pt" height="513.000000pt" viewBox="0 0 513.000000 513.000000"
 preserveAspectRatio="xMidYMid meet">
<metadata>
Created by potrace 1.11, written by Peter Selinger 2001-2013
</metadata>
<g transform="translate(0.000000,513.000000) scale(0.100000,-0.100000)"
fill="#000000" stroke="none">
<path d="M3484 4655 c-91 -38 -112 -157 -69 -395 9 -47 18 -105 21 -130 3 -24
7 -47 10 -51 2 -4 -171 -7 -386 -7 -285 0 -390 3 -391 12 0 6 -3 25 -5 41 -32
219 -82 298 -194 308 -57 5 -120 -21 -149 -62 -37 -52 -27 -172 25 -272 l13
-27 -1027 0 c-565 -1 -1033 -1 -1039 -1 -10 -1 -13 -275 -13 -1334 l0 -1333
891 1 c490 0 894 -2 898 -5 4 -3 7 -125 7 -272 l0 -268 -61 -1 c-33 0 -151 -1
-262 -1 -136 -1 -203 -5 -206 -12 -2 -6 -3 -33 -2 -59 2 -41 7 -53 36 -77 l34
-29 305 -1 c168 -1 351 -1 408 -1 76 0 102 -3 99 -12 -2 -7 -10 -29 -18 -50
-7 -20 -17 -37 -22 -37 -4 0 -5 -5 -2 -10 4 -6 1 -17 -5 -25 -6 -8 -9 -19 -5
-25 3 -5 2 -10 -4 -10 -6 0 -7 -8 -4 -17 6 -15 4 -16 -8 -6 -12 10 -15 8 -15
-7 0 -19 23 -20 1353 -20 897 0 1354 3 1358 10 3 5 2 10 -2 10 -5 0 -17 30
-27 68 -11 37 -39 113 -63 169 -61 146 -120 238 -273 433 -99 125 -181 241
-175 249 2 4 22 6 44 4 23 -2 41 0 42 5 1 4 2 545 2 1203 l2 1196 88 177 c123
246 144 319 117 400 -29 90 -173 124 -250 60 -58 -49 -91 -136 -105 -275 -3
-30 -7 -63 -9 -74 -3 -20 -11 -20 -382 -22 -208 -1 -384 0 -391 2 -8 3 -8 15
-1 47 5 24 12 54 14 68 3 14 7 32 9 40 3 8 7 31 10 50 3 19 9 58 13 85 22 137
-7 239 -78 275 -52 27 -115 33 -156 15z m-604 -3255 c-1 -27 -158 -285 -168
-276 -3 3 -5 67 -6 143 l-1 138 87 0 c49 0 88 -2 88 -5z"/>
</g>
</svg>
